<?xml version="1.0" encoding="UTF-8"?>
<svg width="800" height="800" version="1.1" viewBox="0 0 211.67 211.67" xml:space="preserve" xmlns="http://www.w3.org/2000/svg" xmlns:cc="http://creativecommons.org/ns#" xmlns:dc="http://purl.org/dc/elements/1.1/" xmlns:rdf="http://www.w3.org/1999/02/22-rdf-syntax-ns#"><title>Cloud-1-solid</title><g display="none" fill="none" stroke="#1a1a1a"><circle cx="54.21" cy="114.24" r="28.352" stroke-width="2.5135"/><circle cx="75.82" cy="89.857" r="30.032" stroke-width="2.6625"/><circle cx="108.05" cy="79.606" r="28.352" stroke-width="2.5135"/><circle cx="131.51" cy="91.612" r="22.338" stroke-width="1.9804"/><circle cx="160.04" cy="113.13" r="25.08" stroke-width="2.2235"/><rect x="25.674" y="105.1" width="173.62" height="39.526" rx="18.655" ry="19.763" stroke-width="2.5135"/></g><g><path d="m102.33 56.069a32.233 32.233 0 0 0-26.456 13.837 30.783 30.783 0 0 0-8.5676-1.2172 30.783 30.783 0 0 0-30.641 27.983 29.06 29.06 0 0 0-20.57 27.79 29.06 29.06 0 0 0 0.52968 5.4176c-0.46126 1.7389-0.71242 3.5709-0.71242 5.4679 0 11.219 8.6178 20.251 19.323 20.251h141.19c10.705 0 19.323-9.0321 19.323-20.251 0-10.972-8.2445-19.846-18.621-20.232a25.707 25.707 0 0 0-23.117-14.467 25.707 25.707 0 0 0-6.7429 0.91795 22.897 22.897 0 0 0 0.0112-0.2961 22.897 22.897 0 0 0-13.734-20.983 32.233 32.233 0 0 0-31.218-24.218z" fill="#1ea4e4" image-rendering="auto"/></g><metadata><rdf:RDF><cc:Work rdf:about=""><dc:creator><cc:Agent><dc:title>Muhammad Rafizeldi</dc:title></cc:Agent></dc:creator><dc:title>Cloud-1-solid</dc:title><cc:license rdf:resource="http://creativecommons.org/licenses/by/4.0/"/></cc:Work><cc:License rdf:about="http://creativecommons.org/licenses/by/4.0/"><cc:permits rdf:resource="http://creativecommons.org/ns#Reproduction"/><cc:permits rdf:resource="http://creativecommons.org/ns#Distribution"/><cc:requires rdf:resource="http://creativecommons.org/ns#Notice"/><cc:requires rdf:resource="http://creativecommons.org/ns#Attribution"/><cc:permits rdf:resource="http://creativecommons.org/ns#DerivativeWorks"/></cc:License></rdf:RDF></metadata></svg>
